<svg width="25" height="157" viewBox="0 0 25 157" fill="none" xmlns="http://www.w3.org/2000/svg">
<path d="M25 2.96546C24.0806 3.46658 23.093 3.80518 22.0547 3.95822C23.126 3.16969 23.9275 1.92863 24.3097 0.466612C23.3031 1.20203 22.2016 1.71968 21.0528 1.99707C20.2803 0.98245 19.2571 0.309944 18.142 0.0839617C17.027 -0.142021 15.8825 0.0911637 14.8862 0.747312C13.8899 1.40346 13.0976 2.44586 12.6323 3.71268C12.167 4.97949 12.0547 6.39985 12.3128 7.75322C10.2734 7.62725 8.27824 6.97519 6.45691 5.83934C4.63558 4.70349 3.02876 3.10924 1.74073 1.16006C1.30032 2.09459 1.04708 3.1781 1.04708 4.33203C1.04659 5.37084 1.25455 6.39374 1.65251 7.30997C2.05048 8.2262 2.62614 9.00743 3.32842 9.58435C2.51396 9.55247 1.71747 9.28176 1.00524 8.79474V8.876C1.00516 10.333 1.41486 11.7451 2.16483 12.8728C2.91479 14.0005 3.95883 14.7743 5.11979 15.0628C4.36425 15.3144 3.57211 15.3514 2.80322 15.1712C3.13078 16.4248 3.76882 17.5211 4.62804 18.3065C5.48725 19.0919 6.52462 19.5272 7.59491 19.5513C5.77803 21.3058 3.53418 22.2575 1.22435 22.2533C0.815182 22.2534 0.406364 22.224 0 22.1653C2.34462 24.0196 5.07392 25.0038 7.86136 25C17.2972 25 22.4555 15.3865 22.4555 7.04894C22.4555 6.77806 22.45 6.50447 22.4401 6.23359C23.4435 5.34102 24.3096 4.23573 24.9978 2.96952L25 2.96546Z" fill="white"/>
<path fill-rule="evenodd" clip-rule="evenodd" d="M7.34659 66.075C8.67955 66.0136 9.10455 66 12.5 66C15.8955 66 16.3205 66.0148 17.6523 66.075C18.9841 66.1352 19.8932 66.3477 20.6886 66.6557C21.5216 66.9705 22.2773 67.4625 22.9023 68.0989C23.5386 68.7227 24.0295 69.4773 24.3432 70.3114C24.6523 71.1068 24.8636 72.0159 24.925 73.3455C24.9864 74.6807 25 75.1057 25 78.5C25 81.8955 24.9852 82.3205 24.925 83.6534C24.8648 84.983 24.6523 85.892 24.3432 86.6875C24.0295 87.5217 23.5378 88.2775 22.9023 88.9023C22.2773 89.5386 21.5216 90.0295 20.6886 90.3432C19.8932 90.6523 18.9841 90.8636 17.6545 90.925C16.3205 90.9864 15.8955 91 12.5 91C9.10455 91 8.67955 90.9852 7.34659 90.925C6.01705 90.8648 5.10795 90.6523 4.3125 90.3432C3.47832 90.0295 2.72252 89.5378 2.09773 88.9023C1.4618 88.278 0.969676 87.5226 0.655682 86.6886C0.347727 85.8932 0.136364 84.9841 0.075 83.6545C0.0136363 82.3193 0 81.8943 0 78.5C0 75.1045 0.0147727 74.6795 0.075 73.3477C0.135227 72.0159 0.347727 71.1068 0.655682 70.3114C0.97014 69.4774 1.46263 68.7219 2.09886 68.0977C2.72277 67.4619 3.47781 66.9698 4.31136 66.6557C5.10682 66.3477 6.01591 66.1364 7.34545 66.075H7.34659ZM17.5511 68.325C16.233 68.2648 15.8375 68.2523 12.5 68.2523C9.1625 68.2523 8.76705 68.2648 7.44886 68.325C6.22955 68.3807 5.56818 68.5841 5.12727 68.7557C4.54432 68.983 4.12727 69.2523 3.68977 69.6898C3.27505 70.0932 2.95589 70.5844 2.75568 71.1273C2.58409 71.5682 2.38068 72.2295 2.325 73.4489C2.26477 74.767 2.25227 75.1625 2.25227 78.5C2.25227 81.8375 2.26477 82.233 2.325 83.5511C2.38068 84.7705 2.58409 85.4318 2.75568 85.8727C2.95568 86.4148 3.275 86.9068 3.68977 87.3102C4.09318 87.725 4.58523 88.0443 5.12727 88.2443C5.56818 88.4159 6.22955 88.6193 7.44886 88.675C8.76705 88.7352 9.16136 88.7477 12.5 88.7477C15.8386 88.7477 16.233 88.7352 17.5511 88.675C18.7705 88.6193 19.4318 88.4159 19.8727 88.2443C20.4557 88.017 20.8727 87.7477 21.3102 87.3102C21.725 86.9068 22.0443 86.4148 22.2443 85.8727C22.4159 85.4318 22.6193 84.7705 22.675 83.5511C22.7352 82.233 22.7477 81.8375 22.7477 78.5C22.7477 75.1625 22.7352 74.767 22.675 73.4489C22.6193 72.2295 22.4159 71.5682 22.2443 71.1273C22.017 70.5443 21.7477 70.1273 21.3102 69.6898C20.9067 69.2751 20.4156 68.9559 19.8727 68.7557C19.4318 68.5841 18.7705 68.3807 17.5511 68.325ZM10.9034 82.3534C11.7951 82.7246 12.7879 82.7747 13.7124 82.4951C14.6369 82.2156 15.4357 81.6238 15.9723 80.8207C16.5089 80.0177 16.7501 79.0533 16.6546 78.0922C16.5591 77.1311 16.133 76.2329 15.4489 75.5511C15.0128 75.1153 14.4855 74.7816 13.9049 74.574C13.3244 74.3665 12.705 74.2902 12.0915 74.3507C11.4779 74.4112 10.8854 74.607 10.3566 74.924C9.82779 75.241 9.37584 75.6713 9.0333 76.1839C8.69075 76.6965 8.46612 77.2787 8.37559 77.8886C8.28505 78.4984 8.33085 79.1208 8.5097 79.7108C8.68855 80.3008 8.996 80.8439 9.40991 81.3008C9.82382 81.7578 10.3339 82.1173 10.9034 82.3534ZM7.95682 73.9568C8.55344 73.3602 9.26173 72.8869 10.0412 72.564C10.8208 72.2412 11.6563 72.075 12.5 72.075C13.3437 72.075 14.1792 72.2412 14.9588 72.564C15.7383 72.8869 16.4466 73.3602 17.0432 73.9568C17.6398 74.5534 18.1131 75.2617 18.436 76.0412C18.7588 76.8208 18.925 77.6563 18.925 78.5C18.925 79.3437 18.7588 80.1792 18.436 80.9588C18.1131 81.7383 17.6398 82.4466 17.0432 83.0432C15.8383 84.2481 14.204 84.925 12.5 84.925C10.796 84.925 9.16175 84.2481 7.95682 83.0432C6.75189 81.8383 6.07497 80.204 6.07497 78.5C6.07497 76.796 6.75189 75.1617 7.95682 73.9568ZM20.35 73.0318C20.4978 72.8924 20.6162 72.7246 20.6981 72.5386C20.7799 72.3526 20.8236 72.152 20.8266 71.9488C20.8296 71.7456 20.7917 71.5438 20.7153 71.3555C20.6389 71.1671 20.5255 70.996 20.3818 70.8523C20.2381 70.7086 20.067 70.5952 19.8786 70.5188C19.6903 70.4424 19.4885 70.4045 19.2853 70.4075C19.0821 70.4104 18.8815 70.4542 18.6955 70.536C18.5095 70.6179 18.3417 70.7362 18.2023 70.8841C17.931 71.1716 17.7825 71.5535 17.7883 71.9488C17.7941 72.344 17.9536 72.7215 18.2331 73.001C18.5126 73.2805 18.8901 73.44 19.2853 73.4458C19.6805 73.4516 20.0625 73.3031 20.35 73.0318Z" fill="white"/>
<path fill-rule="evenodd" clip-rule="evenodd" d="M9.28625 140.711H13.9287V143.024C14.5975 141.694 16.3125 140.499 18.8888 140.499C23.8275 140.499 25 143.146 25 148.004V157H20V149.11C20 146.344 19.3313 144.784 17.6287 144.784C15.2675 144.784 14.2863 146.465 14.2863 149.109V157H9.28625V140.711ZM0.7125 156.788H5.7125V140.499H0.7125V156.788ZM6.42875 135.188C6.42894 135.607 6.34582 136.022 6.18423 136.408C6.02265 136.795 5.78581 137.146 5.4875 137.44C4.883 138.041 4.06476 138.377 3.2125 138.375C2.36174 138.374 1.54539 138.039 0.94 137.441C0.642764 137.146 0.406732 136.795 0.24543 136.408C0.0841268 136.021 0.000723915 135.607 0 135.188C0 134.341 0.3375 133.531 0.94125 132.934C1.54611 132.335 2.3628 132 3.21375 132C4.06625 132 4.88375 132.336 5.4875 132.934C6.09 133.531 6.42875 134.341 6.42875 135.188Z" fill="white"/>
</svg>
